<svg width="320" height="315" viewBox="0 0 320 315" fill="none" xmlns="http://www.w3.org/2000/svg">
<path d="M0 40C0 17.9086 17.9086 0 40 0H280C302.091 0 320 17.9086 320 40V275C320 297.091 302.091 315 280 315H40C17.9086 315 0 297.091 0 275V40Z" fill="white"/>
<path d="M121.506 190.004C161.004 190.004 193.009 162.916 193.009 129.502C193.009 96.0884 161.004 69 121.506 69C82.008 69 50.0038 96.0884 50.0038 129.502C50.0038 142.771 55.0571 155.043 63.6167 165.047C62.4136 168.278 60.626 171.132 58.7353 173.538C57.0853 175.669 55.4008 177.319 54.1633 178.454C53.5445 179.004 53.0289 179.451 52.6851 179.726C52.5132 179.863 52.3757 179.966 52.307 180.001L52.2382 180.069C50.3475 181.479 49.5225 183.954 50.2788 186.188C51.035 188.423 53.132 190.004 55.5039 190.004C62.998 190.004 70.5607 188.079 76.8515 185.707C80.0142 184.504 82.9705 183.163 85.5487 181.788C96.1022 187.013 108.374 190.004 121.506 190.004ZM204.009 129.502C204.009 168.106 169.942 197.189 129.585 200.661C137.938 226.236 165.645 245.006 198.509 245.006C211.64 245.006 223.913 242.015 234.501 236.79C237.079 238.165 240.001 239.506 243.163 240.709C249.454 243.081 257.017 245.006 264.511 245.006C266.883 245.006 269.014 243.459 269.736 241.19C270.458 238.921 269.667 236.446 267.742 235.037L267.674 234.968C267.605 234.899 267.467 234.831 267.295 234.693C266.952 234.418 266.436 234.006 265.817 233.421C264.58 232.287 262.895 230.637 261.245 228.505C259.355 226.099 257.567 223.211 256.364 220.014C264.924 210.045 269.977 197.773 269.977 184.469C269.977 152.568 240.791 126.408 203.768 124.139C203.906 125.893 203.975 127.68 203.975 129.468L204.009 129.502Z" fill="#CF3B56"/>
</svg>
